<svg width="387" height="388" viewBox="0 0 387 388" fill="none" xmlns="http://www.w3.org/2000/svg">
<mask id="mask0_1_97" style="mask-type:luminance" maskUnits="userSpaceOnUse" x="0" y="0" width="387" height="388">
<path d="M0 0H387V387.871H0V0Z" fill="white"/>
</mask>
<g mask="url(#mask0_1_97)">
<path d="M386.973 193.641C386.973 300.488 300.344 387.121 193.484 387.121C86.625 387.121 0 300.488 0 193.641C0 86.7812 86.625 0.148438 193.484 0.148438C300.344 0.148438 386.973 86.7812 386.973 193.641Z" fill="#4660B6"/>
</g>
<path d="M245.723 207.672L251.957 167.039H212.977V140.672C212.977 129.559 218.422 118.73 235.879 118.73H253.602V84.1406C253.602 84.1406 237.52 81.3906 222.141 81.3906C190.035 81.3906 169.055 100.852 169.055 136.07V167.039H133.367V207.672H169.055V305.879H212.977V207.672H245.723Z" fill="white"/>
</svg>
