<svg width="388" height="388" viewBox="0 0 388 388" fill="none" xmlns="http://www.w3.org/2000/svg">
<mask id="mask0_1_100" style="mask-type:luminance" maskUnits="userSpaceOnUse" x="0" y="0" width="388" height="388">
<path d="M0 0H388V387.871H0V0Z" fill="white"/>
</mask>
<g mask="url(#mask0_1_100)">
<path d="M387.09 193.641C387.09 300.488 300.461 387.121 193.609 387.121C86.75 387.121 0.121094 300.488 0.121094 193.641C0.121094 86.7812 86.75 0.148438 193.609 0.148438C300.461 0.148438 387.09 86.7812 387.09 193.641Z" fill="#100F0D"/>
</g>
<path d="M173.922 174.559V208.609C172.5 208.441 171.102 208.191 169.648 208.191C150.172 208.191 134.391 223.969 134.391 243.43C134.391 249.48 135.922 255.199 138.621 260.172C130.84 253.711 125.891 243.98 125.891 233.078C125.891 213.602 141.68 197.82 161.16 197.82C162.602 197.82 164 198.078 165.43 198.25V174.469C166.828 174.391 168.23 174.352 169.648 174.352C171.102 174.352 172.5 174.469 173.922 174.559Z" fill="#ED154F"/>
<path d="M295.141 139.301V177.129H295.121C293.25 177.301 291.398 177.41 289.531 177.41C269.051 177.41 249.949 167.078 238.738 149.961V243.43C238.738 281.578 207.809 312.512 169.648 312.512C145.73 312.512 124.641 300.34 112.23 281.859C124.738 294.391 142.039 302.148 161.16 302.148C199.309 302.148 230.238 271.219 230.238 233.059V139.59C241.461 156.738 260.551 167.039 281.031 167.039C282.898 167.039 284.75 166.93 286.621 166.762H286.641V138.059C289.398 138.68 292.25 139.078 295.141 139.301Z" fill="#ED154F"/>
<path d="M248.68 111.809C241.238 104.559 235.68 95.4297 232.75 85.1211H239.23C240.27 94.9219 243.602 103.988 248.68 111.809Z" fill="#ED154F"/>
<path d="M165.43 164.191V174.469C129.23 176.66 100.57 206.699 100.57 243.43C100.57 257.66 104.859 270.879 112.23 281.859C99.7812 269.352 92.0703 252.102 92.0703 233.059C92.0703 194.91 123 163.98 161.16 163.98C162.602 163.98 164 164.109 165.43 164.191Z" fill="#74D0CF"/>
<path d="M232.75 85.1211H206.66L206.32 243.879C206.32 263.359 189.129 278.691 169.648 278.691C156.23 278.691 144.57 271.199 138.621 260.172C144.711 265.27 152.59 268.328 161.16 268.328C180.641 268.328 197.82 252.988 197.82 233.512L198.16 74.7617H230.73C231.109 78.3281 231.789 81.7891 232.75 85.1211Z" fill="#74D0CF"/>
<path d="M286.641 128.93V138.059C270.789 134.621 257.238 125 248.68 111.809C258.621 121.539 271.922 127.84 286.641 128.93Z" fill="#74D0CF"/>
<path d="M286.641 138.059V166.762H286.621C284.75 166.93 282.898 167.039 281.031 167.039C260.551 167.039 241.461 156.738 230.238 139.59V233.059C230.238 271.219 199.309 302.148 161.16 302.148C142.039 302.148 124.738 294.391 112.23 281.859C104.859 270.879 100.57 257.66 100.57 243.43C100.57 206.699 129.23 176.66 165.43 174.469V198.25C164 198.078 162.602 197.82 161.16 197.82C141.68 197.82 125.891 213.602 125.891 233.078C125.891 243.98 130.84 253.711 138.621 260.172C144.57 271.199 156.23 278.691 169.648 278.691C189.129 278.691 206.32 263.359 206.32 243.879L206.66 85.1211H232.75C235.68 95.4297 241.238 104.559 248.68 111.809C257.238 125 270.789 134.621 286.641 138.059Z" fill="white"/>
</svg>
