<svg width="388" height="388" viewBox="0 0 388 388" fill="none" xmlns="http://www.w3.org/2000/svg">
<mask id="mask0_1_99" style="mask-type:luminance" maskUnits="userSpaceOnUse" x="0" y="0" width="388" height="388">
<path d="M0 0H388V387.871H0V0Z" fill="white"/>
</mask>
<g mask="url(#mask0_1_99)">
<path d="M387.379 193.641C387.379 300.488 300.762 387.121 193.898 387.121C87.0391 387.121 0.410156 300.488 0.410156 193.641C0.410156 86.7812 87.0391 0.148438 193.898 0.148438C300.762 0.148438 387.379 86.7812 387.379 193.641Z" fill="#569CDA"/>
</g>
<path d="M305.219 123.398C298.09 126.629 290.211 128.578 282.52 129.871C286.172 129.262 291.531 122.648 293.68 119.969C296.961 115.898 299.68 111.25 301.211 106.23C301.41 105.84 301.559 105.352 301.16 105.059C300.672 104.859 300.352 104.961 299.961 105.16C291.379 109.762 282.5 113.09 273.039 115.461C272.262 115.648 271.68 115.461 271.191 114.961C270.398 114.078 269.672 113.25 268.84 112.559C264.859 109.18 260.602 106.531 255.801 104.57C249.488 102 242.59 100.91 235.801 101.352C229.191 101.781 222.691 103.641 216.828 106.711C210.949 109.781 205.699 114.051 201.52 119.211C197.199 124.539 194.012 130.84 192.379 137.52C190.809 143.961 190.93 150.328 191.898 156.84C192.039 157.922 191.941 158.07 190.969 157.922C154 152.422 123.359 139.191 98.4805 110.852C97.3984 109.621 96.8086 109.621 95.9297 110.941C85.0391 127.262 90.3203 153.469 103.922 166.352C105.738 168.07 107.602 169.789 109.609 171.359C108.871 171.512 99.8281 170.531 91.7617 166.352C90.6797 165.672 90.1406 166.059 90.0391 167.289C89.9414 169.051 90.0899 170.672 90.3399 172.59C92.4219 189.129 103.879 204.422 119.57 210.391C121.43 211.18 123.488 211.859 125.488 212.211C121.922 212.988 118.238 213.551 107.988 212.75C106.719 212.5 106.23 213.141 106.719 214.371C114.422 235.359 131.039 241.609 143.488 245.16C145.16 245.461 146.828 245.461 148.5 245.852C148.398 246 148.301 246 148.199 246.141C144.07 252.441 129.762 257.121 123.09 259.449C110.961 263.691 97.7617 265.602 84.9414 264.34C82.8906 264.031 82.4609 264.059 81.8984 264.34C81.3399 264.68 81.8281 265.18 82.4883 265.711C85.0899 267.422 87.7383 268.949 90.4414 270.422C98.5703 274.73 107.059 278.172 115.93 280.621C161.762 293.27 213.379 283.969 247.789 249.789C274.809 222.941 284.281 185.922 284.281 148.852C284.281 147.398 285.988 146.602 287.012 145.828C294.039 140.551 299.711 134.23 304.949 127.172C306.129 125.578 306.141 124.172 306.141 123.59C306.141 123.488 306.141 123.398 306.141 123.398C306.141 122.809 306.129 122.988 305.219 123.398Z" fill="white"/>
</svg>
