<svg width="388" height="388" viewBox="0 0 388 388" fill="none" xmlns="http://www.w3.org/2000/svg">
<mask id="mask0_1_102" style="mask-type:luminance" maskUnits="userSpaceOnUse" x="0" y="0" width="388" height="388">
<path d="M0 0H387.5V387.871H0V0Z" fill="white"/>
</mask>
<g mask="url(#mask0_1_102)">
<path d="M387.5 194.379C387.5 301.238 300.879 387.871 194.02 387.871C87.1602 387.871 0.53125 301.238 0.53125 194.379C0.53125 87.5195 87.1602 0.890625 194.02 0.890625C300.879 0.890625 387.5 87.5195 387.5 194.379Z" fill="#D51E25"/>
</g>
<path d="M232.801 198.84L175.398 227.238C173.148 228.461 165.5 226.828 165.5 224.27V165.98C165.5 163.391 173.211 161.762 175.461 163.051L230.41 192.941C232.711 194.25 235.129 197.578 232.801 198.84ZM308.07 164.602C308.07 136.949 285.66 114.539 258.02 114.539H130.02C102.371 114.539 79.9688 136.949 79.9688 164.602V224.16C79.9688 251.809 102.371 274.219 130.02 274.219H258.02C285.66 274.219 308.07 251.809 308.07 224.16V164.602Z" fill="white"/>
</svg>
